<?xml version="1.0" encoding="UTF-8"?>
<!DOCTYPE svg PUBLIC "-//W3C//DTD SVG 1.1//EN" "http://www.w3.org/Graphics/SVG/1.1/DTD/svg11.dtd">
<svg xmlns="http://www.w3.org/2000/svg" version="1.1" width="512px" height="512px" style="shape-rendering:geometricPrecision; text-rendering:geometricPrecision; image-rendering:optimizeQuality; fill-rule:evenodd; clip-rule:evenodd" xmlns:xlink="http://www.w3.org/1999/xlink">
<g><path style="opacity:0.926" fill="#000000" d="M 51.5,123.5 C 167.167,123.333 282.834,123.5 398.5,124C 406.433,127.588 408.6,133.422 405,141.5C 402.806,144.181 399.973,145.681 396.5,146C 282.167,146.667 167.833,146.667 53.5,146C 44.4734,143.773 41.3067,138.273 44,129.5C 46.1337,126.847 48.6337,124.847 51.5,123.5 Z"/></g>
<g><path style="opacity:0.966" fill="#000000" d="M 49.5,215.5 C 166.5,215.333 283.5,215.5 400.5,216C 404.802,217.935 406.802,221.268 406.5,226C 406.564,231.609 403.897,235.276 398.5,237C 282.833,237.667 167.167,237.667 51.5,237C 43.2447,233.355 41.078,227.521 45,219.5C 46.3968,217.93 47.8968,216.596 49.5,215.5 Z"/></g>
<g><path style="opacity:0.961" fill="#000000" d="M 398.5,247.5 C 405.247,246.566 409.747,249.232 412,255.5C 412.5,272.497 412.667,289.497 412.5,306.5C 428.837,306.333 445.17,306.5 461.5,307C 468.667,312.15 469.834,318.316 465,325.5C 463.581,326.46 462.081,327.293 460.5,328C 444.503,328.5 428.503,328.667 412.5,328.5C 412.667,345.503 412.5,362.503 412,379.5C 408.037,387.154 402.204,388.987 394.5,385C 392.951,383.786 391.785,382.286 391,380.5C 390.5,363.17 390.333,345.837 390.5,328.5C 374.497,328.667 358.497,328.5 342.5,328C 334.84,324.019 333.006,318.185 337,310.5C 338.214,308.951 339.714,307.785 341.5,307C 357.83,306.5 374.163,306.333 390.5,306.5C 390.333,289.163 390.5,271.83 391,254.5C 392.767,251.228 395.267,248.895 398.5,247.5 Z"/></g>
<g><path style="opacity:0.965" fill="#000000" d="M 49.5,306.5 C 138.501,306.333 227.501,306.5 316.5,307C 323.414,310.676 325.248,316.176 322,323.5C 320.457,325.378 318.624,326.878 316.5,328C 227.833,328.667 139.167,328.667 50.5,328C 43.1436,323.875 41.3102,318.041 45,310.5C 46.3968,308.93 47.8968,307.596 49.5,306.5 Z"/></g>
</svg>
