<?xml version="1.0" standalone="no"?>
<!DOCTYPE svg PUBLIC "-//W3C//DTD SVG 20010904//EN"
 "http://www.w3.org/TR/2001/REC-SVG-20010904/DTD/svg10.dtd">
<svg version="1.0" xmlns="http://www.w3.org/2000/svg"
 width="1280.000000pt" height="1280.000000pt" viewBox="0 0 1280.000000 1280.000000"
 preserveAspectRatio="xMidYMid meet">
<g transform="translate(0.000000,1280.000000) scale(0.100000,-0.100000)"
fill="#000000" stroke="none">
<path d="M8621 12241 c-26 -26 -123 -201 -191 -345 -129 -271 -252 -623 -390
-1111 -200 -708 -235 -831 -292 -1005 -33 -102 -80 -238 -104 -304 -25 -65
-193 -589 -375 -1165 -182 -575 -513 -1619 -734 -2319 -221 -701 -407 -1278
-413 -1284 -7 -7 -39 18 -105 84 -587 587 -1459 799 -2364 577 -569 -139
-1107 -465 -1460 -884 -281 -334 -460 -729 -518 -1145 -9 -63 -23 -161 -31
-216 -117 -824 233 -1674 936 -2275 335 -287 766 -508 1185 -607 210 -50 345
-66 575 -66 290 0 480 31 745 121 333 113 655 321 940 607 478 479 786 1079
1089 2121 30 105 114 411 186 680 182 681 252 919 350 1191 28 76 347 1122
710 2324 363 1202 665 2196 671 2210 10 24 11 24 24 6 18 -24 207 -533 283
-761 406 -1217 401 -2016 -15 -2645 -100 -151 -324 -379 -423 -431 -81 -42
-223 -181 -272 -264 -77 -134 -115 -262 -124 -425 -15 -247 77 -494 233 -629
57 -50 168 -105 241 -120 75 -16 190 -14 280 5 136 27 415 174 618 324 671
498 1106 1286 1236 2240 19 141 22 209 22 465 0 376 -21 547 -104 872 -55 212
-115 373 -236 627 -276 584 -641 1243 -1351 2441 -192 325 -382 646 -423 714
-40 69 -87 143 -104 166 -17 22 -49 71 -71 108 -56 97 -103 137 -160 137 -31
0 -51 -6 -64 -19z"/>
</g>
</svg>
