<?xml version="1.0" encoding="UTF-8" standalone="no"?>
<!-- Created with Inkscape (http://www.inkscape.org/) -->

<svg
   xmlns:dc="http://purl.org/dc/elements/1.1/"
   xmlns:cc="http://creativecommons.org/ns#"
   xmlns:rdf="http://www.w3.org/1999/02/22-rdf-syntax-ns#"
   xmlns:svg="http://www.w3.org/2000/svg"
   xmlns="http://www.w3.org/2000/svg"
   xmlns:sodipodi="http://sodipodi.sourceforge.net/DTD/sodipodi-0.dtd"
   xmlns:inkscape="http://www.inkscape.org/namespaces/inkscape"
   id="svg2861"
   version="1.1"
   inkscape:version="0.92.4 (5da689c313, 2019-01-14)"
   width="200"
   height="187"
   sodipodi:docname="Tamil-alphabet-ழழ.svg">
  <metadata
     id="metadata2867">
    <rdf:RDF>
      <cc:Work
         rdf:about="">
        <dc:format>image/svg+xml</dc:format>
        <dc:type
           rdf:resource="http://purl.org/dc/dcmitype/StillImage" />
        <dc:title />
      </cc:Work>
    </rdf:RDF>
  </metadata>
  <defs
     id="defs2865">
    <inkscape:perspective
       sodipodi:type="inkscape:persp3d"
       inkscape:vp_x="0 : 0.5 : 1"
       inkscape:vp_y="0 : 1000 : 0"
       inkscape:vp_z="1 : 0.5 : 1"
       inkscape:persp3d-origin="0.5 : 0.33333333 : 1"
       id="perspective2869" />
  </defs>
  <sodipodi:namedview
     pagecolor="#ffffff"
     bordercolor="#666666"
     borderopacity="1"
     objecttolerance="10"
     gridtolerance="10"
     guidetolerance="10"
     inkscape:pageopacity="0"
     inkscape:pageshadow="2"
     inkscape:window-width="1920"
     inkscape:window-height="1017"
     id="namedview2863"
     showgrid="false"
     inkscape:zoom="1.2620321"
     inkscape:cx="86.133476"
     inkscape:cy="93.500001"
     inkscape:window-x="-8"
     inkscape:window-y="-8"
     inkscape:window-maximized="1"
     inkscape:current-layer="svg2861" />
  <path
     id="path2874"
     style="fill:#000000"
     d="m 125.51562,42.503906 c -10.03834,0.0032 -11.47233,0.242658 -16.15429,2.708985 C 103.23718,48.438923 97.761169,54.51567 96.160156,59.859375 95.373595,62.484681 95,75.214518 95,99.365234 V 135 H 77 59 V 89.5 44 H 50.5 42 V 93.5 143 h 26.373047 26.373047 l 0.482422,5.0332 c 0.576187,5.99649 3.371088,9.46764 8.974604,11.14649 l 3.82422,1.14453 -4.11914,2.33984 c -2.26504,1.28657 -6.297632,4.29882 -8.960934,6.69336 -6.075464,5.46236 -11.427465,7.05055 -21.69336,6.4375 -9.380681,-0.56019 -15.369847,-3.24682 -17.224609,-7.72461 -1.660909,-4.00979 -0.884333,-5.65364 3.679687,-7.79492 3.093133,-1.45119 3.84787,-2.37695 4.103516,-5.02734 0.262982,-2.72644 -0.108857,-3.40949 -2.314453,-4.24805 -4.332382,-1.64717 -7.296008,-1.1532 -10.560547,1.76367 -5.046184,4.50876 -5.669673,15.07799 -1.242188,21.04883 2.982465,4.02211 9.541151,8.29292 14.976563,9.75391 6.691572,1.79866 22.655802,1.75881 29.693359,-0.0742 3.182274,-0.82888 10.803066,-4.31638 16.933596,-7.75 L 122.44531,169.5 134.72266,169.14648 147,168.79492 V 162.89648 157 h -9.81836 c -12.12082,0 -19.05213,-1.86852 -22.60742,-6.09375 C 113.15794,149.2231 112,146.75664 112,145.42383 112,143.31555 112.46124,143 115.54297,143 c 1.94819,0 7.01069,-0.70248 11.25,-1.56055 19.91259,-4.03044 33.15361,-15.62033 37.67383,-32.97461 1.81816,-6.98037 2.05281,-25.893299 0.41797,-33.666012 -2.72157,-12.939495 -10.69743,-23.613351 -21.6836,-29.017578 -6.31481,-3.106332 -7.25484,-3.280744 -17.68555,-3.277344 z m 4.85938,7.869141 c 3.14754,0.08213 6.33378,0.85106 9.23828,2.373047 6.42693,3.367773 12.88089,11.259496 15.5625,19.03125 3.11531,9.028687 3.3307,27.79396 0.41602,36.222656 -4.53864,13.12487 -13.0537,20.47393 -28.29688,24.42383 C 123.94852,133.29097 119.13858,134 116.60547,134 H 112 V 97.648438 c 0,-36.058802 0.0187,-36.380429 2.25391,-39.697266 3.15573,-4.682803 8.81364,-7.356967 14.77539,-7.572266 0.44713,-0.01615 0.89605,-0.01759 1.3457,-0.0059 z" />
  <g
     inkscape:groupmode="layer"
     id="layer4"
     inkscape:label="Layer" />
</svg>
